<?xml version="1.0" encoding="utf-8"?>
<svg xmlns="http://www.w3.org/2000/svg" data-name="Слой 1" viewBox="0 0 48 48" width="480" height="480">
  <path fill="#f6851f" d="M11.27825,16.40439a.375.375,0,0,1,.05753-.2059.279.279,0,0,1,.33191-.05418,1.05325,1.05325,0,0,1,.2806.22742,2.39138,2.39138,0,0,0,.79618.51161,1.04923,1.04923,0,0,1,.38759.20235.86188.86188,0,0,1,.18326.40265,1.2312,1.2312,0,0,1-.02153.9734c-.18058.27725-.55684.36847-.7553.63322a1.30673,1.30673,0,0,1-.20752.27627C11.79371,19.78823,11.25185,16.79672,11.27825,16.40439Z" />
  <path fill="#f6851f" d="M34.30034,17.42475a.62645.62645,0,0,1,.335-.62386l1.1788-.94684a.51169.51169,0,0,1,.39209-.16c.17644.03514.25966.23734.29283.41416a4.79637,4.79637,0,0,1-.21931,2.05607.884.884,0,0,1-.38477.63418.77934.77934,0,0,1-.40423.03915c-.28991-.02884-.91977-.07815-1.11308-.334C34.19309,18.25935,34.302,17.7138,34.30034,17.42475Z" />
  <path fill="#d6e5e5" d="M25.72,5.47a12.75838,12.75838,0,0,0-1.86.06c-.77.1-1.95.7-2.69.28a1.42267,1.42267,0,0,1-.54-.64,3.14743,3.14743,0,0,1-.25-.69,1.00775,1.00775,0,0,1,.63-1.22,13.64768,13.64768,0,0,1,6.09-.65,1.2252,1.2252,0,0,1,.67.19.85413.85413,0,0,1,.23.37,6.25638,6.25638,0,0,1,.32,1.18.88808.88808,0,0,1,.01.28,1.01976,1.01976,0,0,1-1.03.87Z" />
  <path fill="#4b7bb2" d="M34.42,16.46a2.88156,2.88156,0,0,1-.83-.01,3.95879,3.95879,0,0,1-1.64-.59,12.83,12.83,0,0,1-1.44-1.23,8.99177,8.99177,0,0,0-2.39-1.55,7.69116,7.69116,0,0,0-7.29.29.07581.07581,0,0,1-.04.02,40.17906,40.17906,0,0,0-3.16,2.59A5.32779,5.32779,0,0,1,14,17.43a2.07145,2.07145,0,0,1-.41-.07,3.07632,3.07632,0,0,1-2.47-2.14,8.689,8.689,0,0,1,.95-5.18A7.54009,7.54009,0,0,1,15,7.44a22.37986,22.37986,0,0,1,5.63-2.27,1.42267,1.42267,0,0,0,.54.64c.74.42,1.92-.18,2.69-.28a12.75838,12.75838,0,0,1,1.86-.06l1.58.03a1.01976,1.01976,0,0,0,1.03-.87,11.16409,11.16409,0,0,1,5.15,1.84,8.21941,8.21941,0,0,1,3.47,6.21,4.07854,4.07854,0,0,1-1.04,3.15A2.46607,2.46607,0,0,1,34.42,16.46Z" />
  <path fill="#14b6b9" d="M16.7,39.57a5.53733,5.53733,0,0,0,1.18-.89,6.93547,6.93547,0,0,0,3.07,1.8,13.60714,13.60714,0,0,0,4.02.45,8.47907,8.47907,0,0,0,4.25-.95.00979.00979,0,0,0,.01-.01,38.2783,38.2783,0,0,0,3.36,3.38c.06.05.11.1.17.15a4.96574,4.96574,0,0,1-.94.56,9.58557,9.58557,0,0,1-1.75.54c-5.81,1.36-12.2,1.34-17.55-1.18a5.81156,5.81156,0,0,1-1.46-.92c-.25-.23-.47-.61-.25-.88a.907.907,0,0,1,.61-.24A13.59826,13.59826,0,0,0,16.7,39.57Z" />
  <path fill="#d6e5e5" d="M25.81,33.61c-.44-.45-1.08-1.06-1.61-1.58a4.68739,4.68739,0,0,1,.47-.43c.06-.05.12-.1.19-.15a7.42337,7.42337,0,0,1,.64-.46c.56.61,1.19,1.29,1.67,1.82.16.18.38.38.62.31a.97132.97132,0,0,0,.35-.26,1.38564,1.38564,0,0,1,1.62.07,5.25193,5.25193,0,0,1,.87.83c.13.13.25.26.38.38a17.24107,17.24107,0,0,0,1.63,1.17,12.83866,12.83866,0,0,1,2.28,2.32,19.92568,19.92568,0,0,1,1.89,2.68,3.1973,3.1973,0,0,1,.38.87,2.17346,2.17346,0,0,1-.68,2,3.26714,3.26714,0,0,1-2,.83,2.5302,2.5302,0,0,1-1.19-.15,2.80361,2.80361,0,0,1-.56-.36c-.06-.05-.11-.1-.17-.15a38.2783,38.2783,0,0,1-3.36-3.38c-.57-.62-1.14-1.24-1.69-1.87a7.63955,7.63955,0,0,1-.98-1.3,2.6426,2.6426,0,0,1-.2-.37,1.551,1.551,0,0,1-.13-.48c-.01-.38.24-.74.25-1.12A1.795,1.795,0,0,0,25.81,33.61Z" />
  <path fill="#fcbf95" d="M20.22,36.4q1.095.255,2.19.42a10.72856,10.72856,0,0,0,4.15-.02,7.63955,7.63955,0,0,0,.98,1.3c.55.63,1.12,1.25,1.69,1.87a.00979.00979,0,0,1-.01.01,8.47907,8.47907,0,0,1-4.25.95,13.60714,13.60714,0,0,1-4.02-.45,6.93547,6.93547,0,0,1-3.07-1.8,1.62184,1.62184,0,0,0,.25-.28,3.99789,3.99789,0,0,0,.72-2.53.607.607,0,0,0,.1.07A4.39333,4.39333,0,0,0,20.22,36.4Z" />
  <path fill="#f6851f" d="M28.12,13.08c-.88,1.03-1.61,2.25-2.86,2.82a2.70622,2.70622,0,0,1-2.75-.19,6.41187,6.41187,0,0,1-1.17-1.59,8.09968,8.09968,0,0,0-.55-.73.07581.07581,0,0,0,.04-.02A7.69116,7.69116,0,0,1,28.12,13.08Z" />
  <path fill="#fcbf95" d="M14.18,21.94c.09,1.44.18,2.88.37,4.3a2.32291,2.32291,0,0,1-1.76-1,3.84763,3.84763,0,0,1-.32-.75c-.21-.6-.41-1.2-.62-1.8a6.32679,6.32679,0,0,1-.46-2,2.20656,2.20656,0,0,1,.79-1.83,1.42915,1.42915,0,0,1,1.45-.12c.09.36.21.72.3,1.08A11.68394,11.68394,0,0,1,14.18,21.94Z" />
  <path fill="#fcbf95" d="M33.41,23.86c.35-1.95.7-3.91.89-5.88a2.85463,2.85463,0,0,1,1.98,1.84,4.74245,4.74245,0,0,1-.24,3.35,4.49668,4.49668,0,0,1-.73,1.23,3.10834,3.10834,0,0,1-2.18,1.03C33.23,24.9,33.32,24.38,33.41,23.86Z" />
  <path fill="#fcbf95" d="M29.48,19.25a.68866.68866,0,0,0-.43-.33,1.26263,1.26263,0,0,0-.55-.05,1.57124,1.57124,0,0,0-.76.26.84012.84012,0,0,0-.36.69,1.05,1.05,0,0,0,.08.35,1.015,1.015,0,0,0,1.32.57,1.16414,1.16414,0,0,0,.53-.24,1.09576,1.09576,0,0,0,.26-.83A.885.885,0,0,0,29.48,19.25ZM14,17.43a5.32779,5.32779,0,0,0,3.63-1.45,40.17906,40.17906,0,0,1,3.16-2.59,8.09968,8.09968,0,0,1,.55.73,6.41187,6.41187,0,0,0,1.17,1.59,2.70622,2.70622,0,0,0,2.75.19c1.25-.57,1.98-1.79,2.86-2.82a8.99177,8.99177,0,0,1,2.39,1.55,12.83,12.83,0,0,0,1.44,1.23,3.95879,3.95879,0,0,0,1.64.59,2.88156,2.88156,0,0,0,.83.01c-.03.51-.07,1.01-.12,1.52-.19,1.97-.54,3.93-.89,5.88-.09.52-.18,1.04-.28,1.57-.11.62-.22,1.24-.33,1.87a33.38146,33.38146,0,0,1-.71,3.3,11.34028,11.34028,0,0,1-1.46,3.16,5.25193,5.25193,0,0,0-.87-.83,1.38564,1.38564,0,0,0-1.62-.07.97132.97132,0,0,1-.35.26c-.24.07-.46-.13-.62-.31-.48-.53-1.11-1.21-1.67-1.82a7.42337,7.42337,0,0,0-.64.46c-.07.05-.13.1-.19.15a4.68739,4.68739,0,0,0-.47.43c.53.52,1.17,1.13,1.61,1.58a1.795,1.795,0,0,1,.67,1.22c-.01.38-.26.74-.25,1.12a1.551,1.551,0,0,0,.13.48,2.6426,2.6426,0,0,0,.2.37,10.72856,10.72856,0,0,1-4.15.02q-1.095-.165-2.19-.42a4.39333,4.39333,0,0,1-1.27-.46.607.607,0,0,1-.1-.07,3.858,3.858,0,0,1-.7-.64,14.31539,14.31539,0,0,1-3.11-6.27,22.43927,22.43927,0,0,1-.49-2.72c-.19-1.42-.28-2.86-.37-4.3a11.68394,11.68394,0,0,0-.25-2.12c-.09-.36-.21-.72-.3-1.08a2.88877,2.88877,0,0,1-.08-1.24l.04-.14A2.07145,2.07145,0,0,0,14,17.43Zm4.21,1.25a1.14859,1.14859,0,0,0-.39.95c.1,1.08,1.6,1.2,2.18.44a.62153.62153,0,0,0,.15-.33.66949.66949,0,0,0,0-.2c-.01-.03-.01-.06-.02-.1a1.44207,1.44207,0,0,0-.28-.6,1.1605,1.1605,0,0,0-.79-.43,1.209,1.209,0,0,0-.5.06h-.01A1.29661,1.29661,0,0,0,18.21,18.68Z" />
  <path fill="#010101" d="M27.38,19.82a.84012.84012,0,0,1,.36-.69,1.57124,1.57124,0,0,1,.76-.26,1.26263,1.26263,0,0,1,.55.05.68866.68866,0,0,1,.43.33.885.885,0,0,1,.09.42,1.09576,1.09576,0,0,1-.26.83,1.16414,1.16414,0,0,1-.53.24,1.015,1.015,0,0,1-1.32-.57A1.05,1.05,0,0,1,27.38,19.82Z" />
  <path fill="#010101" d="M20.13,19.44c.01.04.01.07.02.1a1.78606,1.78606,0,0,0-1.59-1.07,1.209,1.209,0,0,1,.5-.06,1.1605,1.1605,0,0,1,.79.43A1.44207,1.44207,0,0,1,20.13,19.44Z" />
  <path fill="#010101" d="M20,20.07c-.58.76-2.08.64-2.18-.44a1.14859,1.14859,0,0,1,.39-.95,1.29661,1.29661,0,0,1,.34-.21h.01a1.78606,1.78606,0,0,1,1.59,1.07.66949.66949,0,0,1,0,.2A.62153.62153,0,0,1,20,20.07Z" />
  <g>
    <path fill="#010101" d="M23.92969,28.25977a.49556.49556,0,0,1-.23926-.061,3.862,3.862,0,0,1-2.08984-3.0376,6.02139,6.02139,0,0,1,.084-1.17871c.2002-1.45166.41016-2.91308.62012-4.36426a.50029.50029,0,0,1,.99023.14356c-.21,1.44922-.41992,2.90771-.62012,4.35644a5.28826,5.28826,0,0,0-.07617.98487A2.89886,2.89886,0,0,0,24.169,27.3208a.50005.50005,0,0,1-.23926.939Z" />
    <path fill="#010101" d="M16.66992,19.81982a.50026.50026,0,0,1-.36426-.84277A3.26212,3.26212,0,0,1,18.5,17.75a2.93174,2.93174,0,0,1,2.11328,1.15576h0A.50049.50049,0,0,1,20.25,19.75a.56785.56785,0,0,1-.40332-.20166A2.02246,2.02246,0,0,0,18.5,18.75a2.29456,2.29456,0,0,0-1.46582.9126A.49961.49961,0,0,1,16.66992,19.81982Z" />
    <path fill="#010101" d="M26.63965,20.06982a.5.5,0,0,1-.38086-.82373A3.029,3.029,0,0,1,28.0752,18.166a2.18721,2.18721,0,0,1,2.08789.80859.49993.49993,0,1,1-.80664.59082,1.19386,1.19386,0,0,0-1.13184-.41064,2.03429,2.03429,0,0,0-1.2041.73876A.49832.49832,0,0,1,26.63965,20.06982Z" />
    <path fill="#010101" d="M30.62988,34.25977a.5.5,0,0,1-.41406-.78028,10.85078,10.85078,0,0,0,1.39356-3.019,32.61824,32.61824,0,0,0,.69335-3.22412l.335-1.894c.10058-.53272.19043-1.0503.27929-1.56739.34278-1.91064.69629-3.88232.88477-5.84277.0498-.5044.08887-.998.11914-1.502a.4999.4999,0,0,1,.51367-.48.491.491,0,0,1,.48535.48974c-.03125.56641-.07226,1.07276-.12207,1.58887-.19238,2-.5498,3.99219-.89551,5.91943-.08984.51953-.17968,1.042-.28125,1.5752l-.3291,1.86279a33.69159,33.69159,0,0,1-.72168,3.352A11.85687,11.85687,0,0,1,31.044,34.04.49826.49826,0,0,1,30.62988,34.25977Z" />
    <path fill="#010101" d="M24.64355,37.51367A15.31447,15.31447,0,0,1,22.335,37.314c-.73535-.11035-1.48535-.25439-2.22851-.42724a4.822,4.822,0,0,1-1.41895-.521.99087.99087,0,0,1-.18848-.13916,3.85824,3.85824,0,0,1-.72558-.66748,14.67049,14.67049,0,0,1-3.21875-6.48047,22.89389,22.89389,0,0,1-.501-2.77881c-.19336-1.44482-.28418-2.91113-.37305-4.32861a11.23864,11.23864,0,0,0-.2373-2.03369c-.042-.17041-.09277-.34375-.14356-.51758-.05468-.186-.10839-.37256-.15527-.55859a3.42651,3.42651,0,0,1-.08594-1.45508.50008.50008,0,0,1,.98243.1875,2.44391,2.44391,0,0,0,.07519,1.02832c.042.1709.09277.34424.14356.51807.05468.186.10839.37256.15527.55859a12.07434,12.07434,0,0,1,.26367,2.21289c.08692,1.39746.17774,2.8457.36719,4.2627a22.03712,22.03712,0,0,0,.47949,2.666A13.70339,13.70339,0,0,0,18.52051,34.894a3.3858,3.3858,0,0,0,.61426.56543,3.8162,3.8162,0,0,0,1.2041.45459c.71191.16553,1.43554.30469,2.14551.41114a10.38014,10.38014,0,0,0,3.956-.01075.49976.49976,0,1,1,.23828.97071A8.51287,8.51287,0,0,1,24.64355,37.51367Z" />
    <path fill="#010101" d="M14.55078,26.74023c-.01758,0-.03418-.001-.05078-.00244a2.80687,2.80687,0,0,1-2.13281-1.23,4.37009,4.37009,0,0,1-.37012-.854L11.37793,22.855a6.7752,6.7752,0,0,1-.48828-2.15723,2.69477,2.69477,0,0,1,.99414-2.24121,1.94119,1.94119,0,0,1,1.97851-.15918.50016.50016,0,0,1-.46484.88575.9248.9248,0,0,0-.92285.08056,1.70286,1.70286,0,0,0-.585,1.41895,5.88553,5.88553,0,0,0,.43164,1.84082l.62012,1.80176a3.53777,3.53777,0,0,0,.27636.65576,1.81074,1.81074,0,0,0,1.38184.76172.5.5,0,0,1-.04883.99755Z" />
    <path fill="#010101" d="M33.12988,25.93018a.49992.49992,0,0,1-.01855-.99952,2.61261,2.61261,0,0,0,1.82422-.8623,4.06391,4.06391,0,0,0,.6455-1.09717,4.23213,4.23213,0,0,0,.22754-2.98535,2.36279,2.36279,0,0,0-1.61718-1.51758.50017.50017,0,1,1,.21679-.97656A3.34714,3.34714,0,0,1,36.752,19.65527a5.22279,5.22279,0,0,1-.25,3.70655,4.98008,4.98008,0,0,1-.81933,1.3706,3.62779,3.62779,0,0,1-2.53418,1.19727Z" />
    <path fill="#010101" d="M14.27637,17.94189c-.10645,0-.21192-.00439-.31836-.01367a2.58429,2.58429,0,0,1-.50488-.0874A3.50377,3.50377,0,0,1,10.626,15.29688a9.19152,9.19152,0,0,1,1.01465-5.5127A8.022,8.022,0,0,1,14.752,7.00586a22.93222,22.93222,0,0,1,5.75586-2.3208.5.5,0,1,1,.24414.96973,21.91975,21.91975,0,0,0-5.50488,2.21972A7.13114,7.13114,0,0,0,12.501,10.29346a8.20618,8.20618,0,0,0-.88672,4.85058c.13281.85547,1.14941,1.51709,2.08594,1.728a1.68849,1.68849,0,0,0,.33886.05957,4.7766,4.7766,0,0,0,3.27735-1.34131c.39453-.313.7705-.64746,1.14648-.98095a16.75836,16.75836,0,0,1,2.05859-1.64112.52922.52922,0,0,1,.06153-.0332,8.1307,8.1307,0,0,1,7.74316-.31055,9.44986,9.44986,0,0,1,2.51856,1.63428c.124.11084.25.22754.375.34375a7.68343,7.68343,0,0,0,1.0039.83887,3.45047,3.45047,0,0,0,1.42774.51269,2.376,2.376,0,0,0,.69824.01074,1.99934,1.99934,0,0,0,1.2207-.501,3.59614,3.59614,0,0,0,.87989-2.7666,7.70832,7.70832,0,0,0-3.25879-5.81934,10.55974,10.55974,0,0,0-4.92188-1.75147.5.5,0,0,1-.43555-.55712.50841.50841,0,0,1,.55665-.436,11.53129,11.53129,0,0,1,5.377,1.92774,8.73148,8.73148,0,0,1,3.68262,6.5996,4.51162,4.51162,0,0,1-1.20508,3.541,2.94317,2.94317,0,0,1-1.78028.75635,3.35848,3.35848,0,0,1-.94824-.01319,4.44263,4.44263,0,0,1-1.83594-.66406,8.58646,8.58646,0,0,1-1.14257-.94629c-.12012-.11181-.24024-.22314-.36133-.33154A8.45235,8.45235,0,0,0,27.918,13.5376a7.14791,7.14791,0,0,0-6.82422.25732v-.001c-.01855.01123-.03711.022-.05664.03173A15.79562,15.79562,0,0,0,19.127,15.35742c-.38965.34571-.78027.6919-1.18652,1.01416A5.96278,5.96278,0,0,1,14.27637,17.94189Z" />
    <path fill="#010101" d="M21.80273,6.45605a1.75671,1.75671,0,0,1-.87988-.21093,1.88435,1.88435,0,0,1-.73926-.85059,3.57517,3.57517,0,0,1-.28808-.79248,1.49669,1.49669,0,0,1,.94433-1.8125,14.24028,14.24028,0,0,1,6.333-.67432,1.56539,1.56539,0,0,1,.92774.30957,1.30471,1.30471,0,0,1,.36621.56592,6.693,6.693,0,0,1,.3457,1.273,1.38853,1.38853,0,0,1,.01465.42041A1.52345,1.52345,0,0,1,27.31836,6H27.29L25.71,5.97021a12.46866,12.46866,0,0,0-1.78516.05518,5.481,5.481,0,0,0-.71191.17041A5.38786,5.38786,0,0,1,21.80273,6.45605ZM25.542,3.00293a13.74517,13.74517,0,0,0-4.36816.729.50666.50666,0,0,0-.31153.61573,2.69907,2.69907,0,0,0,.21.58984l.00781.01563a.93892.93892,0,0,0,.3418.4248c.331.189.96386.01074,1.52148-.145a6.42423,6.42423,0,0,1,.85254-.19873,13.31511,13.31511,0,0,1,1.93164-.064L27.30957,5a.48139.48139,0,0,0,.52441-.43164.36628.36628,0,0,0-.00488-.12256,5.74115,5.74115,0,0,0-.2959-1.09619.56825.56825,0,0,0-.084-.16553.96246.96246,0,0,0-.31055-.0664L27.03711,3.106A10.30115,10.30115,0,0,0,25.542,3.00293Z" />
    <path fill="#010101" d="M34.21484,44.52148a2.71109,2.71109,0,0,1-1.09277-.20263,3.32124,3.32124,0,0,1-.66894-.42383l-.11133-.09717-.07617-.06689a38.67235,38.67235,0,0,1-3.4043-3.42334c-.57227-.62207-1.14551-1.24561-1.69824-1.87891a8.11949,8.11949,0,0,1-1.041-1.38623,2.90591,2.90591,0,0,1-.21582-.40381,2.03024,2.03024,0,0,1-.1748-.65967,2.11944,2.11944,0,0,1,.15039-.773,1.53459,1.53459,0,0,0,.09863-.39013c.01172-.27637-.25586-.5752-.53027-.85791-.29493-.30176-.68262-.67871-1.06641-1.05078l-.5332-.52051a.49963.49963,0,1,1,.69921-.71387l.53125.5166c.38965.37891.78418.7627,1.08594,1.0708a2.25717,2.25717,0,0,1,.81348,1.59034,2.32206,2.32206,0,0,1-.15137.67627,1.35925,1.35925,0,0,0-.09863.40918,1.16,1.16,0,0,0,.09375.30761,2.14574,2.14574,0,0,0,.15234.28028A7.20366,7.20366,0,0,0,27.916,37.77c.54785.62793,1.11523,1.24463,1.68261,1.86182a37.77372,37.77372,0,0,0,3.31543,3.3374l.10157.08984a2.4127,2.4127,0,0,0,.50976.34473,2.05021,2.05021,0,0,0,.94629.10742,2.75044,2.75044,0,0,0,1.69141-.69141,1.68264,1.68264,0,0,0,.53906-1.53173,2.75945,2.75945,0,0,0-.32617-.7295,19.69291,19.69291,0,0,0-1.84375-2.61328,12.20122,12.20122,0,0,0-2.18946-2.23291c-.1748-.126-.36035-.248-.54589-.3706a8.79748,8.79748,0,0,1-1.125-.833c-.09571-.08838-.18555-.18018-.27637-.27344l-.12012-.12256a5.02454,5.02454,0,0,0-.80176-.77246.90993.90993,0,0,0-1.01172-.09814,1.25658,1.25658,0,0,1-.53418.3584,1.08909,1.08909,0,0,1-1.13183-.4585c-.31445-.34717-.69727-.76367-1.083-1.18164l-.58105-.63232a.49971.49971,0,1,1,.73632-.67579l.58008.63037c.3877.42042.77344.83936,1.09278,1.1919a1.05429,1.05429,0,0,0,.14453.14014.17194.17194,0,0,1,.043-.05469l.07324-.06885a1.86478,1.86478,0,0,1,2.23535.02344,5.70122,5.70122,0,0,1,.96484.91064l.11035.11231c.07911.08105.15528.16015.23731.23535a7.873,7.873,0,0,0,.998.73437c.19726.12989.39453.26026.585.39747a13.35773,13.35773,0,0,1,2.376,2.41064A20.52761,20.52761,0,0,1,37.24414,40.063a3.63941,3.63941,0,0,1,.43359,1.00683,2.66078,2.66078,0,0,1-.82421,2.47364,3.75046,3.75046,0,0,1-2.30274.96484C34.43457,44.51709,34.32227,44.52148,34.21484,44.52148Z" />
    <path fill="#010101" d="M22.51953,34.56006a.50031.50031,0,0,1-.43164-.75244,8.93929,8.93929,0,0,1,1.7793-2.15088,4.68527,4.68527,0,0,1,.48828-.44483c.06933-.0581.13672-.11377.21582-.16992a7.59331,7.59331,0,0,1,.66016-.47363,5.1614,5.1614,0,0,1,3.06933-.96777.50054.50054,0,0,1,.47949.51953.48682.48682,0,0,1-.5205.47949,4.38816,4.38816,0,0,0-2.48536.80908,6.497,6.497,0,0,0-.60058.43115c-.08106.0586-.12891.09912-.17774.13965a4.12255,4.12255,0,0,0-.43066.39209,8.08058,8.08058,0,0,0-1.61426,1.94092A.49947.49947,0,0,1,22.51953,34.56006Z" />
    <path fill="#010101" d="M32.46973,39.96a.49666.49666,0,0,1-.36426-.15771c-2.29883-2.44922-4.43067-4.64991-6.51758-6.72754l-.08887-.08838a7.01336,7.01336,0,0,1-.58105-.626c-.10645-.126-.21192-.272-.31738-.418L24.46,31.74951a.4999.4999,0,1,1,.80078-.59863l.15039.206c.0918.12647.18262.25342.28125.37159a6.23408,6.23408,0,0,0,.51075.54785l.09082.08984c2.09375,2.08545,4.23339,4.29395,6.54,6.75147a.5.5,0,0,1-.36425.84228Z" />
    <path fill="#010101" d="M22.58105,45.99561a24.1161,24.1161,0,0,1-10.27441-2.12354,6.286,6.286,0,0,1-1.58691-1.00537,1.12564,1.12564,0,0,1-.29785-1.562,1.33878,1.33878,0,0,1,.92968-.41992,13.11429,13.11429,0,0,0,5.0918-1.74414,5.16081,5.16081,0,0,0,1.07324-.80372,1.32044,1.32044,0,0,0,.2041-.22461,3.47514,3.47514,0,0,0,.62891-2.24218.5.5,0,0,1,1,0,4.39983,4.39983,0,0,1-.8252,2.83691,2.088,2.088,0,0,1-.31054.34522,5.97745,5.97745,0,0,1-1.25489.94531A14.10672,14.10672,0,0,1,11.48047,41.876a1.32317,1.32317,0,0,0-.28223.061c.02442-.001.0918.09522.2002.19483a5.36646,5.36646,0,0,0,1.33789.8374c4.73144,2.229,10.84765,2.63525,17.21972,1.144a9.26808,9.26808,0,0,0,1.66016-.50976,4.36126,4.36126,0,0,0,.84082-.502.5004.5004,0,0,1,.60547.79688,5.4288,5.4288,0,0,1-1.03516.6167,10.10449,10.10449,0,0,1-1.84277.57177A33.46435,33.46435,0,0,1,22.58105,45.99561Z" />
    <path fill="#010101" d="M24.63281,41.43262A13.44618,13.44618,0,0,1,20.80957,40.96a7.43729,7.43729,0,0,1-3.291-1.93457.49973.49973,0,1,1,.72266-.69043,6.44251,6.44251,0,0,0,2.85059,1.66553,12.96273,12.96273,0,0,0,3.87011.42969,8.12942,8.12942,0,0,0,3.96778-.85889.52311.52311,0,0,1,.80078.39892.515.515,0,0,1-.25293.4375l.001.00049a8.96414,8.96414,0,0,1-4.498,1.022C24.8623,41.43164,24.74707,41.43262,24.63281,41.43262Z" />
    <path fill="#010101" d="M23.97949,16.68311a2.85686,2.85686,0,0,1-1.77929-.58057,4.43657,4.43657,0,0,1-1.001-1.26514c-.08887-.14795-.17871-.2959-.27442-.438a7.45238,7.45238,0,0,0-.51367-.68261.50028.50028,0,0,1,.75782-.65332,8.6137,8.6137,0,0,1,.58007.769c.11036.16406.208.32568.30664.4873a3.60958,3.60958,0,0,0,.76368.99756,2.23823,2.23823,0,0,0,2.23339.12744,6.11187,6.11187,0,0,0,2.09668-1.96044c.19434-.2461.38868-.49268.59082-.729a.49975.49975,0,1,1,.75977.64942c-.19336.22656-.37988.46289-.56641.69921a6.9457,6.9457,0,0,1-2.46679,2.251A3.6071,3.6071,0,0,1,23.97949,16.68311Z" />
    <path fill="#010101" d="M11.75,19.83008a.50016.50016,0,0,1-.47461-.34229,10.69936,10.69936,0,0,1-.48242-2.15136,7.72654,7.72654,0,0,1,0-1.6543.50045.50045,0,0,1,.99414.11621,6.61678,6.61678,0,0,0,.001,1.43262,9.66733,9.66733,0,0,0,.43652,1.9414.50064.50064,0,0,1-.31641.63233A.51021.51021,0,0,1,11.75,19.83008Z" />
    <path fill="#010101" d="M36.08008,19.87988a.518.518,0,0,1-.1084-.01172.50065.50065,0,0,1-.37988-.59668,13.72913,13.72913,0,0,0,.25-1.85937c.05273-.73291.07812-1.39844.07812-2.03223v-.1997a.5.5,0,0,1,1,0v.1997c0,.65821-.02637,1.34717-.081,2.10645a14.54427,14.54427,0,0,1-.27051,2.002A.50076.50076,0,0,1,36.08008,19.87988Z" />
  </g>
</svg>