<?xml version="1.0" encoding="utf-8"?>
<svg xmlns="http://www.w3.org/2000/svg" viewBox="0 0 30 30" width="480" height="480">
  <path d="M23.919,14h-2.168c-0.366,0-0.702,0.2-0.878,0.521l-2.067,3.786h-0.171l-3.477-6.583c1.559-0.681,2.428-2.28,2.428-4.026 C17.586,4.757,15.592,3,12.266,3H7C6.448,3,6,3.448,6,4v12c0,0.552,0.448,1,1,1h1.622c0.552,0,1-0.448,1-1v-3.743h2.143l4.663,8.185 l-3.529,5.799C12.697,26.573,12.937,27,13.327,27h2.06c0.35,0,0.675-0.183,0.856-0.483l2.195-3.634h0.171l2.177,3.631 C20.966,26.816,21.292,27,21.643,27h2.247c0.394,0,0.633-0.434,0.423-0.767l-3.633-5.756l3.66-5.708 C24.553,14.437,24.314,14,23.919,14z M9.622,9.701V5.734h2.132c1.293,0,2.132,0.78,2.132,1.993c0,1.234-0.789,1.974-2.122,1.974 H9.622z" fill="#FFFFFF" />
</svg>