<?xml version="1.0" encoding="utf-8"?>
<svg xmlns="http://www.w3.org/2000/svg" viewBox="0 0 64 64" width="512" height="512">
  <path fill="#85cbf8" d="M6.665,30.707L30.707,6.665c6.248-6.248,16.379-6.248,22.627,0l0,0 c6.248,6.248,6.248,16.379,0,22.627L29.293,53.335c-6.248,6.248-16.379,6.248-22.627,0l0,0C0.417,47.086,0.417,36.956,6.665,30.707z" />
  <path fill="#7bbeeb" d="M26.059,54.837c-1.259-1.259-3.1-1.784-4.812-1.294C20.216,53.839,19.128,54,18,54 c-3.669,0-6.946-1.651-9.145-4.246C7.911,48.639,6.523,48,5.062,48H3.174C5.549,53.861,11.287,58,18,58 c3.196,0,6.164-0.946,8.661-2.561L26.059,54.837z" />
  <path fill="#ed7899" d="M44.956,37.672l8.379-8.379c6.248-6.249,6.248-16.379,0-22.627l0,0 c-6.248-6.248-16.379-6.248-22.627,0l-8.379,8.379L44.956,37.672z" />
  <path fill="#75b8e5" d="M14.419 25.333H46.147000000000006V35.232H14.419z" transform="rotate(45.001 30.283 30.282)" />
  <path fill="#f994b3" d="M42,2c-4.273,0-8.145,1.685-11.015,4.414l0.434,0.434C32.671,8.1,34.607,8.399,36.15,7.53 C37.88,6.557,39.873,6,42,6c5.567,0,10.248,3.79,11.604,8.931C54.076,16.72,55.64,18,57.491,18H58C58,9.163,50.837,2,42,2z" />
  <path fill="#faefde" d="M61,44c0,9.39-7.61,17-17,17c-4.7,0-8.94-1.9-12.02-4.98C28.9,52.94,27,48.7,27,44 c0-9.39,7.61-17,17-17c4.7,0,8.94,1.9,12.02,4.98C59.1,35.06,61,39.3,61,44z" />
  <path fill="#fff7f0" d="M56.02,31.98L31.98,56.02C28.9,52.94,27,48.7,27,44c0-9.39,7.61-17,17-17 C48.7,27,52.94,28.9,56.02,31.98z" />
  <path fill="#8d6c9f" d="M22.929 24.343l1.415-1.415c.391-.391.391-1.023 0-1.414s-1.023-.391-1.414 0l-1.415 1.415c-.391.391-.391 1.023 0 1.414.195.195.451.293.707.293S22.733 24.539 22.929 24.343zM25.757 28.171c.256 0 .512-.098.707-.293l1.414-1.414c.391-.391.391-1.023 0-1.414s-1.023-.391-1.414 0l-1.414 1.414c-.391.391-.391 1.023 0 1.414C25.246 28.074 25.501 28.171 25.757 28.171zM29.293 31.707c.256 0 .512-.098.707-.293L31.414 30c.391-.391.391-1.023 0-1.414s-1.023-.391-1.414 0L28.586 30c-.391.391-.391 1.023 0 1.414C28.781 31.609 29.037 31.707 29.293 31.707zM26.657 32.314l-2.829-2.829c-.391-.391-1.023-.391-1.414 0s-.391 1.023 0 1.414l2.829 2.829c.195.195.451.293.707.293s.512-.098.707-.293C27.047 33.337 27.047 32.705 26.657 32.314zM50.952 11.606c.195.273.502.418.814.418.201 0 .405-.061.581-.187.449-.321.553-.946.231-1.395-.397-.556-.841-1.083-1.319-1.567-.388-.393-1.021-.396-1.415-.009-.393.388-.397 1.021-.009 1.415C50.24 10.689 50.615 11.136 50.952 11.606zM38.538 7.556c2.726-.902 5.774-.694 8.351.587.143.071.295.104.444.104.368 0 .722-.203.896-.555.246-.495.044-1.095-.45-1.341C45.974 5.455 44.03 5 42 5c-1.399 0-2.775.221-4.091.657-.524.174-.809.74-.635 1.264C37.448 7.445 38.014 7.731 38.538 7.556z" />
  <path fill="#8d6c9f" d="M54.57,29.45c6.1-6.67,5.92-17.04-0.53-23.49c-6.63-6.63-17.41-6.63-24.04,0l-8.44,8.44 c-0.02,0.01-0.03,0.02-0.05,0.04c-0.01,0.02-0.03,0.03-0.04,0.05l-7.022,7.022c-0.001,0.001-0.003,0.002-0.004,0.003 s-0.002,0.003-0.003,0.004L5.96,30c-6.63,6.63-6.63,17.41,0,24.04c3.31,3.32,7.67,4.97,12.02,4.97c4.11,0,8.23-1.47,11.47-4.44 C32.72,59.07,38.02,62,44,62c9.93,0,18-8.07,18-18C62,38.02,59.07,32.72,54.57,29.45z M31.41,7.37c2.93-2.92,6.77-4.38,10.61-4.38 c3.84,0,7.68,1.46,10.61,4.38c5.77,5.77,5.85,15.12,0.23,20.98C50.25,26.85,47.22,26,44,26c-2.77,0-5.4,0.63-7.75,1.76L23.64,15.15 L31.41,7.37z M7.37,52.63c-5.85-5.85-5.85-15.37,0-21.22l7.78-7.775l4.436,4.436c0.195,0.195,0.451,0.293,0.707,0.293 s0.512-0.098,0.707-0.293c0.391-0.391,0.391-1.023,0-1.414l-4.435-4.435l1.415-1.414c0.195,0.195,0.451,0.293,0.707,0.293 s0.512-0.098,0.707-0.293l1.414-1.414c0.39-0.39,0.39-1.022,0.001-1.413l1.412-1.411l12.2,12.2C29.36,31.96,26,37.59,26,44 c0,3.22,0.85,6.25,2.35,8.86C22.49,58.48,13.14,58.4,7.37,52.63z M44,60c-5.42,0-10.22-2.71-13.11-6.85 c-0.4-0.56-0.75-1.14-1.07-1.75C28.66,49.19,28,46.67,28,44c0-5.86,3.17-10.99,7.88-13.77c0.6-0.37,1.23-0.68,1.88-0.96 C39.68,28.45,41.79,28,44,28c2.67,0,5.19,0.66,7.4,1.82c0.61,0.32,1.19,0.67,1.75,1.07C57.29,33.78,60,38.58,60,44 C60,52.82,52.82,60,44,60z" />
  <path fill="#8d6c9f" d="M52.142,34.444L34.515,52.071c-0.391,0.391-0.391,1.023,0,1.414 c0.195,0.195,0.451,0.293,0.707,0.293s0.512-0.098,0.707-0.293l17.627-17.627c0.391-0.391,0.391-1.023,0-1.414 S52.533,34.053,52.142,34.444z" />
</svg>