<?xml version="1.0" encoding="utf-8"?>
<svg xmlns="http://www.w3.org/2000/svg" viewBox="0 0 40 40" width="480" height="480">
  <path fill="#dff0fe" d="M8,38.5c-0.827,0-1.5-0.673-1.5-1.5V7c0-0.827,0.673-1.5,1.5-1.5h24c0.827,0,1.5,0.673,1.5,1.5v30 c0,0.827-0.673,1.5-1.5,1.5H8z" />
  <path fill="#4788c7" d="M32,6c0.551,0,1,0.449,1,1v30c0,0.551-0.449,1-1,1H8c-0.551,0-1-0.449-1-1V7c0-0.551,0.449-1,1-1 H32 M32,5H8C6.9,5,6,5.9,6,7v30c0,1.1,0.9,2,2,2h24c1.1,0,2-0.9,2-2V7C34,5.9,33.1,5,32,5L32,5z" />
  <path fill="#b6dcfe" d="M7,36h26v1c0,0.55-0.45,1-1,1H8c-0.552,0-1-0.448-1-1V36z" />
  <path fill="#98ccfd" d="M7.5,7.5V4c0-1.379,1.122-2.5,2.5-2.5h20c1.378,0,2.5,1.121,2.5,2.5v3.5H7.5z" />
  <path fill="#4788c7" d="M30,2c1.103,0,2,0.897,2,2v3H8V4c0-1.103,0.897-2,2-2H30 M30,1H10C8.343,1,7,2.343,7,4v4h26V4 C33,2.343,31.657,1,30,1L30,1z" />
  <path fill="#b6dcfe" d="M4.5,10.5V7c0-1.379,1.122-2.5,2.5-2.5h26c1.378,0,2.5,1.121,2.5,2.5v3.5H4.5z" />
  <path fill="#4788c7" d="M33,5c1.103,0,2,0.897,2,2v3H5V7c0-1.103,0.897-2,2-2H33 M33,4H7C5.343,4,4,5.343,4,7v4h32V7 C36,5.343,34.657,4,33,4L33,4z" />
  <path fill="#fff" d="M11.5 14.5H28.5V32.5H11.5z" />
  <path fill="#4788c7" d="M28,15v17H12V15H28 M29,14H11v19h18V14L29,14z" />
  <g>
    <path fill="#4788c7" d="M18.5,18c0.827,0,1.5,0.673,1.5,1.5S19.327,21,18.5,21H17v-3H18.5 M18.5,17h-2 c-0.276,0-0.5,0.224-0.5,0.5v4c0,0.276,0.224,0.5,0.5,0.5h2c1.381,0,2.5-1.119,2.5-2.5S19.881,17,18.5,17L18.5,17z" />
  </g>
  <path fill="none" stroke="#4788c7" stroke-linecap="round" d="M18.2 21.545L22.718 28.501M22.5 23.5L19.137 28.501" />
  <path fill="#4788c7" d="M16.5,17L16.5,17c0.275,0,0.5,0.225,0.5,0.5v7c0,0.275-0.225,0.5-0.5,0.5l0,0 c-0.275,0-0.5-0.225-0.5-0.5v-7C16,17.225,16.225,17,16.5,17z" />
</svg>