<?xml version="1.0" encoding="utf-8"?>
<svg xmlns="http://www.w3.org/2000/svg" viewBox="0 0 64 64" width="512" height="512">
  <linearGradient id="JDTtc5bEwfDEUF0tmd~JCa" x1="32" x2="32" y1="5.167" y2="58.611" gradientUnits="userSpaceOnUse" spreadMethod="reflect">
    <stop offset="0" stop-color="#1a6dff" />
    <stop offset="1" stop-color="#c822ff" />
  </linearGradient>
  <path fill="url(#JDTtc5bEwfDEUF0tmd~JCa)" d="M52.727,11.273C49.972,8.518,46.308,7,42.41,7c-3.896,0-7.561,1.518-10.316,4.273 l-20.82,20.82C8.518,34.85,7,38.514,7,42.41c0,3.897,1.518,7.562,4.273,10.316C14.028,55.482,17.692,57,21.59,57 c3.896,0,7.561-1.518,10.316-4.273l20.82-20.82C55.482,29.15,57,25.486,57,21.59C57,17.692,55.482,14.028,52.727,11.273z M53.715,18.48c-0.494,0.492-1.295,0.492-1.789,0c-0.493-0.493-0.493-1.296,0-1.789c0.247-0.246,0.57-0.37,0.895-0.37 s0.647,0.124,0.895,0.37C54.208,17.185,54.208,17.987,53.715,18.48z M35.203,11.986c0.614,0,1.228,0.233,1.695,0.701 c0.935,0.935,0.935,2.456,0,3.391c-0.936,0.936-2.455,0.936-3.391,0c-0.935-0.935-0.935-2.456,0-3.391 C33.976,12.22,34.589,11.986,35.203,11.986z M30.492,51.313C28.114,53.69,24.952,55,21.59,55c-3.363,0-6.524-1.31-8.902-3.688 C10.31,48.935,9,45.773,9,42.41c0-3.362,1.31-6.524,3.687-8.902l8.102-8.102l8.902,8.902l1.414-1.414l-8.902-8.902l1.789-1.789 l17.805,17.805L30.492,51.313z M36.098,31.293l-0.094,0.094l-3.391-3.391l0.094-0.094c0.936-0.936,2.455-0.936,3.391,0 C37.032,28.837,37.032,30.358,36.098,31.293z M45.52,34.496c-0.935-0.935-0.935-2.456,0-3.391c0.936-0.936,2.455-0.936,3.391,0 c0.319,0.319,0.537,0.718,0.638,1.151l-2.878,2.877C46.238,35.034,45.839,34.815,45.52,34.496z M51.312,30.492l-0.237,0.237 c-0.202-0.376-0.444-0.731-0.751-1.038c-1.715-1.715-4.504-1.715-6.219,0s-1.715,4.504,0,6.219c0.307,0.307,0.663,0.549,1.039,0.75 l-1.933,1.933l-5.793-5.793l0.094-0.094c1.715-1.715,1.715-4.504,0-6.219s-4.504-1.715-6.219,0l-0.094,0.094l-5.793-5.793 l5.501-5.501c0.169,0.808,0.561,1.578,1.187,2.204c0.857,0.857,1.983,1.286,3.109,1.286s2.252-0.429,3.109-1.286 c1.715-1.715,1.715-4.504,0-6.219c-0.432-0.433-0.933-0.754-1.468-0.969C38.556,9.459,40.446,9,42.41,9 c3.363,0,6.524,1.31,8.902,3.688c0.513,0.513,0.965,1.068,1.376,1.647c-0.791,0.032-1.574,0.339-2.177,0.942 c-1.273,1.272-1.273,3.345,0,4.617c0.637,0.637,1.473,0.955,2.309,0.955c0.743,0,1.478-0.266,2.081-0.769 c0.059,0.498,0.099,1,0.099,1.509C55,24.952,53.69,28.114,51.312,30.492z" />
  <linearGradient id="JDTtc5bEwfDEUF0tmd~JCb" x1="44.012" x2="44.012" y1="5.167" y2="58.611" gradientUnits="userSpaceOnUse" spreadMethod="reflect">
    <stop offset="0" stop-color="#1a6dff" />
    <stop offset="1" stop-color="#c822ff" />
  </linearGradient>
  <path fill="url(#JDTtc5bEwfDEUF0tmd~JCb)" d="M41.703,19.281c-1.273,1.272-1.273,3.345,0,4.617c0.637,0.637,1.473,0.955,2.309,0.955 s1.672-0.318,2.309-0.955c1.273-1.272,1.273-3.345,0-4.617C45.047,18.008,42.977,18.008,41.703,19.281z M44.906,22.484 c-0.494,0.492-1.295,0.492-1.789,0c-0.493-0.493-0.493-1.296,0-1.789c0.247-0.246,0.57-0.37,0.895-0.37 c0.324,0,0.647,0.124,0.895,0.37C45.399,21.188,45.399,21.991,44.906,22.484z" />
  <linearGradient id="JDTtc5bEwfDEUF0tmd~JCc" x1="17.294" x2="17.294" y1="32.5" y2="50.114" gradientUnits="userSpaceOnUse" spreadMethod="reflect">
    <stop offset="0" stop-color="#6dc7ff" />
    <stop offset="1" stop-color="#e6abff" />
  </linearGradient>
  <path fill="url(#JDTtc5bEwfDEUF0tmd~JCc)" d="M14.383,49.617c-3.98-3.98-3.98-10.434,0-14.414l1.602-1.602l7.207,7.207L14.383,49.617z" />
</svg>